<?xml version="1.0" encoding="UTF-8"?><svg id="Capa_1" xmlns="http://www.w3.org/2000/svg" viewBox="0 0 200.88 215.76"><defs><style>.cls-1{fill:none;}.cls-2{fill:#fff;}.cls-3{fill:#cc9c62;}.cls-4{fill:#221f1f;}</style></defs><polygon class="cls-1" points="123.8 145.55 126.38 142.58 123.8 142.58 123.8 145.55"/><path class="cls-1" d="M93.33,133.25c0-2.38-1.5-3.77-4.5-3.77h-4.02v4.5c.73,.99,1.42,1.99,2.08,3h1.95c3,0,4.5-1.39,4.5-3.73Z"/><polygon class="cls-1" points="69.36 107.32 67.5 102.99 58.14 105.03 57.16 107.32 69.36 107.32"/><path class="cls-1" d="M170.74,87.09c1.23,0,2.39,.1,3.48,.28l8.14-9.4-43.6,9.5,12.12,26.84,6.5-7.51v-19.71h13.36Z"/><polygon class="cls-1" points="129.49 107.32 141.7 107.32 135.57 93.12 129.49 107.32"/><path class="cls-1" d="M127.45,112.05l-3.2,7.52h-6.22l13.76-30.58-17.89,3.9v26.68h-4.96l-17.71-21.74-.2,.04v21.7h-5.99v-20.4l-12.14,2.65,8.01,17.75h-6.31l-3.25-7.52h-16.08c8.61,3.22,16.05,7.79,22.28,13.71v-1.98h11.71c6.99,0,11.38,3.62,11.38,9.48s-4.01,9.1-10.46,9.41c5.89,11.37,7.95,23.14,8.56,31.81l21.73-25.08h-3.92v-25.61h11.71c4.88,0,8.49,1.77,10.22,4.83l8.24-9.51-3.04-7.04h-16.24Zm-16.05,37.34h-7.24v-25.61h7.24v25.61Z"/><polygon class="cls-1" points="163.41 92.19 163.41 99.84 170.04 92.19 163.41 92.19"/><polygon class="cls-1" points="152.08 139.07 158.67 139.07 155.38 130.87 152.08 139.07"/><path class="cls-1" d="M29.97,114.74c2.32,0,4.59-.46,6.68-1.67v-.86c-4.78-.7-9.94-1.1-15.54-1.15,2.09,2.29,5.18,3.68,8.85,3.68Z"/><path class="cls-1" d="M105.95,38.81c-3.7,3.87-6.31,9.28-7.35,15.24-1.15,6.53-.34,12.95,2.29,18.08,2.4,4.69,6.04,7.68,10.25,8.43,.68,.12,1.38,.18,2.07,.18,3.93,0,7.96-1.96,11.36-5.52,3.7-3.87,6.32-9.29,7.37-15.25,1.14-6.52,.33-12.94-2.3-18.06-2.4-4.69-6.04-7.68-10.24-8.42-.69-.12-1.39-.19-2.09-.19h0v0c-3.93,0-7.96,1.96-11.36,5.52Z"/><path class="cls-1" d="M170.46,105.14c5.29,0,8.03-2.41,8.03-6.5,0-2.52-1.04-4.38-3.08-5.44l-10.34,11.94h5.4Z"/><polygon class="cls-1" points="63.24 93.12 60.42 99.7 65.59 98.58 63.24 93.12"/><path class="cls-1" d="M42.55,108.43c2.53,.51,4.97,1.13,7.34,1.82l1.71-3.8-9.05,1.97Z"/><polygon class="cls-1" points="107.92 94.19 97.62 96.43 107.92 109.08 107.92 94.19"/><path class="cls-1" d="M127.83,129.48h-4.02v7.5h4.02c3,0,4.5-1.39,4.5-3.73s-1.5-3.77-4.5-3.77Z"/><polygon class="cls-1" points="193.04 107.09 190.02 108.34 193.04 109.59 193.04 107.09"/><path class="cls-1" d="M183.66,129.48h-4.02v7.5h4.02c3,0,4.5-1.39,4.5-3.73s-1.5-3.77-4.5-3.77Z"/><path class="cls-1" d="M191.09,98.07c-.87,0-1.38,.56-1.38,1.68v1.49h2.75v-1.49c0-1.12-.52-1.68-1.38-1.68Z"/><polygon class="cls-1" points="193.04 92.66 193.04 90.16 190.02 91.41 193.04 92.66"/><path class="cls-1" d="M191.09,114.46c-.87,0-1.38,.56-1.38,1.68v1.49h2.74v-1.49c0-1.12-.51-1.68-1.36-1.68Z"/><path class="cls-3" d="M110.31,85.2c.97,.17,1.93,.25,2.9,.25,10.75,0,20.86-10.39,23.38-24.68,2.73-15.57-4.59-29.87-16.37-31.95-.97-.17-1.94-.26-2.91-.26v4.72h0c.7,0,1.4,.06,2.09,.19,4.2,.74,7.84,3.73,10.24,8.42,2.63,5.13,3.44,11.54,2.3,18.06-1.05,5.96-3.67,11.38-7.37,15.25-3.4,3.56-7.44,5.52-11.36,5.52-.69,0-1.39-.06-2.07-.18-4.21-.75-7.85-3.74-10.25-8.43-2.63-5.13-3.44-11.55-2.29-18.08,1.04-5.96,3.66-11.37,7.35-15.24,3.4-3.56,7.43-5.52,11.36-5.52v-4.72s0,0,0,0c-10.75,0-20.86,10.38-23.36,24.66-2.74,15.58,4.58,29.88,16.36,31.97Z"/><polygon class="cls-3" points="150.88 114.31 153.02 119.05 157.38 114.01 157.38 106.8 150.88 114.31"/><polygon class="cls-4" points="91.03 97.57 91.03 97.87 91.23 97.82 91.03 97.57"/><polygon class="cls-3" points="65.59 98.58 60.42 99.7 58.14 105.03 67.5 102.99 65.59 98.58"/><path class="cls-3" d="M4.76,111.83c3.21-.32,6.28-.52,9.26-.65-.21-.4-.41-.82-.58-1.24l-8.68,1.89Z"/><path class="cls-3" d="M170.04,92.19l-6.62,7.65v5.3h1.66l10.34-11.94c-1.27-.66-2.92-1.01-4.94-1.01h-.43Z"/><path class="cls-3" d="M36.65,112.21v-7.33l-17.2,3.75c.45,.89,1.01,1.7,1.67,2.43,5.59,.05,10.76,.45,15.54,1.15Z"/><path class="cls-3" d="M84.8,136.98h2.08c-.66-1.01-1.35-2.01-2.08-3v3Z"/><path class="cls-3" d="M126.38,142.58l-2.57,2.97v3.84h-3.32l-21.73,25.08c-.61-8.67-2.67-20.44-8.56-31.81-.3,.01-.61,.03-.92,.03h-4.45c11.86,20.92,9.16,44.5,9.16,44.5l35.93-41.47-2.15-3.14h-1.38Z"/><polygon class="cls-3" points="85.04 99.17 85.04 94.34 70.92 97.42 72.9 101.82 85.04 99.17"/><path class="cls-3" d="M146.73,119.09l-8.24,9.51c.75,1.32,1.16,2.88,1.16,4.65,0,.45-.03,.89-.08,1.32l13-15h-5.62l-.21-.48Z"/><path class="cls-3" d="M42.55,108.43l9.05-1.97,2.41-5.36-11.65,2.54v9.59c1.93,.41,3.78,.87,5.57,1.38l1.96-4.36c-2.37-.7-4.81-1.31-7.34-1.82Z"/><path class="cls-3" d="M55.28,112.05h-.16l-1.83,4.3c5.33,1.97,9.98,4.41,14.03,7.18,2.15,.34,4.2,1,5.86,1.96l-.8,1.93c1.89,1.63,3.61,3.34,5.19,5.11v-6.79c-6.23-5.92-13.67-10.48-22.28-13.71Z"/><polygon class="cls-3" points="107.92 94.19 107.92 89.35 94.28 92.33 97.62 96.43 107.92 94.19"/><path class="cls-3" d="M131.8,88.98l.85-1.9h5.94l.17,.38,43.6-9.5-8.14,9.4c1.84,.3,3.47,.84,4.86,1.6l16.15-18.64-81.32,17.72v4.83l17.89-3.9Z"/><path class="cls-2" d="M18.23,103.33c0-6.73,4.87-11.41,11.79-11.41,3.48,0,6.4,1.16,8.96,3.71l3.8-3.71c-3.06-3.48-7.61-5.29-13.04-5.29-10.16,0-17.59,7.01-17.59,16.7,0,2.39,.45,4.62,1.28,6.61l6.01-1.31c-.78-1.56-1.22-3.35-1.22-5.3Z"/><polygon class="cls-2" points="42.36 102.96 36.65 102.96 36.65 104.88 42.36 103.64 42.36 102.96"/><path class="cls-2" d="M36.65,113.07c-2.09,1.21-4.36,1.67-6.68,1.67-3.67,0-6.76-1.39-8.85-3.68-.38,0-.74-.02-1.12-.02-1.94,0-3.93,.05-5.97,.14,2.81,5.4,8.57,8.85,15.63,8.85,4.59,0,9.33-1.39,12.71-4.13v-2.67c-1.84-.39-3.74-.73-5.71-1.02v.86Z"/><path class="cls-2" d="M36.65,104.88v7.33c1.97,.29,3.87,.63,5.71,1.02v-9.59l-5.71,1.24Z"/><path class="cls-2" d="M21.12,111.06c-.66-.72-1.22-1.54-1.67-2.43l-6.01,1.31c.18,.43,.37,.84,.58,1.24,2.04-.09,4.04-.14,5.97-.14,.38,0,.75,.01,1.12,.02Z"/><polygon class="cls-2" points="63.24 93.12 65.59 98.58 70.92 97.42 66.25 87.09 60.32 87.09 54.01 101.1 60.42 99.7 63.24 93.12"/><path class="cls-2" d="M74.61,119.57h6.31l-8.01-17.75-5.41,1.18,1.86,4.32h-12.2l.98-2.28-6.54,1.42-1.71,3.8c1.85,.54,3.64,1.14,5.39,1.8h16.08l3.25,7.52Z"/><path class="cls-2" d="M45.7,119.57h6.22l1.37-3.21c-1.71-.63-3.5-1.21-5.35-1.74l-2.23,4.96Z"/><polygon class="cls-2" points="58.14 105.03 60.42 99.7 54.01 101.1 51.6 106.46 58.14 105.03"/><polygon class="cls-3" points="67.5 102.99 72.9 101.82 70.92 97.42 65.59 98.58 67.5 102.99"/><path class="cls-2" d="M55.28,112.05c-1.75-.65-3.55-1.25-5.39-1.8l-1.96,4.36c1.86,.53,3.64,1.11,5.35,1.74l1.83-4.3h.16Z"/><polygon class="cls-2" points="90.01 87.09 85.04 87.09 85.04 94.34 94.28 92.33 90.01 87.09"/><polygon class="cls-2" points="91.03 119.57 91.03 97.87 85.04 99.17 85.04 119.57 91.03 119.57"/><polygon class="cls-2" points="113.9 119.57 113.9 92.88 107.92 94.19 107.92 109.08 97.62 96.43 91.23 97.82 108.94 119.57 113.9 119.57"/><polygon class="cls-2" points="113.9 87.09 107.92 87.09 107.92 89.35 113.9 88.05 113.9 87.09"/><polygon class="cls-2" points="113.9 92.88 113.9 88.05 107.92 89.35 107.92 94.19 113.9 92.88"/><polygon class="cls-2" points="91.03 97.87 91.03 97.57 91.23 97.82 97.62 96.43 94.28 92.33 85.04 94.34 85.04 99.17 91.03 97.87"/><polygon class="cls-4" points="153.25 119.57 153.02 119.05 152.56 119.57 153.25 119.57"/><path class="cls-2" d="M131.8,88.98l-13.76,30.58h6.22l3.2-7.52h16.24l3.04,7.04,4.14-4.78-12.12-26.84-6.96,1.52Zm-2.3,18.33l6.08-14.2,6.12,14.2h-12.2Z"/><polygon class="cls-2" points="146.73 119.09 146.94 119.57 152.56 119.57 153.02 119.05 150.88 114.31 146.73 119.09"/><polygon class="cls-2" points="138.59 87.09 132.65 87.09 131.8 88.98 138.76 87.47 138.59 87.09"/><path class="cls-2" d="M170.04,92.19l4.18-4.83c-1.09-.18-2.24-.28-3.48-.28h-13.36v19.71l6.03-6.96v-7.65h6.62Z"/><path class="cls-2" d="M185.13,119.57l-7.47-10.67c4.41-1.72,6.91-5.34,6.91-10.25,0-4.41-1.99-7.74-5.49-9.67l-3.67,4.23c2.04,1.06,3.08,2.92,3.08,5.44,0,4.08-2.74,6.5-8.03,6.5h-5.4l-7.69,8.87v5.56h6.03v-9.47h7.33c.42,0,.84,0,1.25-.05l6.64,9.51h6.5Z"/><path class="cls-3" d="M170.04,92.19h.43c2.03,0,3.68,.35,4.94,1.01l3.67-4.23c-1.39-.77-3.02-1.31-4.86-1.6l-4.18,4.83Z"/><polygon class="cls-2" points="163.41 105.14 163.41 99.84 157.38 106.8 157.38 114.01 165.07 105.14 163.41 105.14"/><path class="cls-2" d="M193.95,116.04c0-2.11-1.09-3.43-2.85-3.43s-2.87,1.32-2.87,3.43v3.42h7.9v-1.83h-2.18v-1.59Zm-1.49,1.59h-2.74v-1.49c0-1.12,.51-1.68,1.38-1.68s1.36,.56,1.36,1.68v1.49Z"/><path class="cls-2" d="M188.23,109.23l7.9,3.52v-1.87l-1.69-.7v-3.67l1.69-.7v-1.92l-7.9,3.53v1.8Zm4.82-2.14v2.5l-3.02-1.25,3.02-1.25Z"/><path class="cls-2" d="M191.09,96.22c-1.77,0-2.87,1.32-2.87,3.43v3.42h7.9v-1.83h-2.2v-1.68l2.2-1.52v-1.96l-2.54,1.77c-.44-1.03-1.31-1.62-2.49-1.62Zm1.38,5.02h-2.75v-1.49c0-1.12,.51-1.68,1.38-1.68s1.38,.56,1.38,1.68v1.49Z"/><path class="cls-2" d="M196.12,88.88v-1.92l-7.9,3.53v1.8l7.9,3.52v-1.87l-1.69-.7v-3.67l1.69-.7Zm-3.08,3.78l-3.02-1.25,3.02-1.25v2.5Z"/><rect class="cls-2" x="12" y="123.77" width="7.24" height="25.61"/><polygon class="cls-2" points="41.67 137.42 30.37 123.77 24.4 123.77 24.4 149.39 31.5 149.39 31.5 135.74 42.81 149.39 48.77 149.39 48.77 123.77 41.67 123.77 41.67 137.42"/><path class="cls-2" d="M63.88,123.26c-7.61,0-11.34,3.73-11.34,8.31,0,9.51,14.56,6.55,14.56,10.61,0,1.24-1.17,2.09-4.17,2.09s-6.18-1.02-8.45-2.52l-2.38,5.34c2.41,1.68,6.59,2.82,10.79,2.82,7.61,0,11.34-3.81,11.34-8.27,0-9.44-14.53-6.51-14.53-10.43,0-1.28,1.1-2.3,4.13-2.3,2.23,0,4.65,.66,7.1,1.98l1.43-3.44c-1.57-1.36-3.26-2.65-5.06-3.89-1.13-.18-2.29-.28-3.43-.28Z"/><path class="cls-3" d="M67.31,123.54c1.8,1.23,3.49,2.53,5.06,3.89l.8-1.93c-1.66-.96-3.71-1.61-5.86-1.96Z"/><path class="cls-2" d="M77.56,149.39h7.24v-6.7h.01c-1.98-3.5-4.38-6.92-7.26-10.15v16.84Z"/><path class="cls-2" d="M100.65,133.25c0-5.85-4.39-9.48-11.38-9.48h-11.71v1.98c1.23,1.17,2.41,2.38,3.55,3.65,1.33,1.49,2.56,3.02,3.7,4.57v-4.5h4.02c3,0,4.5,1.39,4.5,3.77s-1.5,3.73-4.5,3.73h-1.95c1.22,1.87,2.32,3.77,3.31,5.68,6.45-.31,10.46-3.85,10.46-9.41Z"/><path class="cls-2" d="M90.19,142.66c-.99-1.91-2.09-3.81-3.31-5.68h-2.08v-3c-1.14-1.55-2.37-3.08-3.7-4.57-1.13-1.27-2.32-2.49-3.55-3.65v6.79c2.88,3.23,5.27,6.65,7.26,10.15h4.45c.31,0,.62-.02,.92-.03Z"/><rect class="cls-2" x="104.16" y="123.77" width="7.24" height="25.61"/><path class="cls-2" d="M128.27,123.77h-11.71v25.61h3.92l3.32-3.84v-2.97h2.57l12.11-13.98c-1.74-3.06-5.34-4.83-10.22-4.83Zm-.44,13.21h-4.02v-7.5h4.02c3,0,4.5,1.39,4.5,3.77s-1.5,3.73-4.5,3.73Z"/><path class="cls-2" d="M132.4,149.39h7.76l-5.52-8.05c2.8-1.35,4.55-3.67,4.93-6.77l-9.67,11.16,2.5,3.66Z"/><polygon class="cls-2" points="123.8 149.39 123.8 145.55 120.48 149.39 123.8 149.39"/><path class="cls-2" d="M138.49,128.6l-12.11,13.98h1.38l2.15,3.14,9.67-11.16c.05-.43,.08-.86,.08-1.32,0-1.77-.41-3.33-1.16-4.65Z"/><path class="cls-2" d="M151.86,123.77l-11.31,25.61h7.39l2.01-4.98h10.83l2.01,4.98h7.54l-11.34-25.61h-7.13Zm.22,15.29l3.29-8.2,3.29,8.2h-6.59Z"/><path class="cls-2" d="M195.48,133.25c0-5.85-4.39-9.48-11.38-9.48h-11.71v25.61h7.24v-6.81h3.95l4.65,6.81h7.76l-5.52-8.05c3.18-1.54,5.01-4.32,5.01-8.09Zm-11.82,3.73h-4.02v-7.5h4.02c3,0,4.5,1.39,4.5,3.77s-1.5,3.73-4.5,3.73Z"/></svg>