<?xml version="1.0" encoding="utf-8"?>
<!-- Generator: Adobe Illustrator 26.4.1, SVG Export Plug-In . SVG Version: 6.00 Build 0)  -->
<svg version="1.1" id="Capa_1" xmlns="http://www.w3.org/2000/svg" xmlns:xlink="http://www.w3.org/1999/xlink" x="0px" y="0px"
	 viewBox="0 0 200.9 215.8" style="enable-background:new 0 0 200.9 215.8;" xml:space="preserve">
<style type="text/css">
	.st0{fill:none;}
	.st1{fill:none;stroke:#221F1F;stroke-width:0;stroke-linecap:round;stroke-linejoin:round;}
	.st2{fill:#CC9C62;}
	.st3{fill:#221F1F;}
	.st4{fill:#FFFFFF;}
</style>
<g>
	<polygon class="st0" points="123.8,145.6 126.4,142.6 123.8,142.6 	"/>
	<path class="st0" d="M93.3,133.2c0-2.4-1.5-3.8-4.5-3.8h-4v4.5c0.7,1,1.4,2,2.1,3h1.9C91.8,137,93.3,135.6,93.3,133.2z"/>
	<polygon class="st0" points="69.4,107.3 67.5,103 58.1,105 57.2,107.3 	"/>
	<path class="st0" d="M170.7,87.1c1.2,0,2.4,0.1,3.5,0.3l8.1-9.4l-43.6,9.5l12.1,26.8l6.5-7.5V87.1H170.7z"/>
	<polygon class="st0" points="129.5,107.3 141.7,107.3 135.6,93.1 	"/>
	<path class="st0" d="M127.5,112l-3.2,7.5H118L131.8,89l-17.9,3.9v26.7h-5L91.2,97.8l-0.2,0v21.7h-6V99.2l-12.1,2.6l8,17.7h-6.3
		l-3.2-7.5H55.3c8.6,3.2,16.1,7.8,22.3,13.7v-2h11.7c7,0,11.4,3.6,11.4,9.5c0,5.6-4,9.1-10.5,9.4c5.9,11.4,7.9,23.1,8.6,31.8
		l21.7-25.1h-3.9v-25.6h11.7c4.9,0,8.5,1.8,10.2,4.8l8.2-9.5l-3-7H127.5z M111.4,149.4h-7.2v-25.6h7.2V149.4z"/>
	<polygon class="st0" points="163.4,92.2 163.4,99.8 170,92.2 	"/>
	<polygon class="st0" points="152.1,139.1 158.7,139.1 155.4,130.9 	"/>
	<path class="st0" d="M30,114.7c2.3,0,4.6-0.5,6.7-1.7v-0.9c-4.8-0.7-9.9-1.1-15.5-1.1C23.2,113.4,26.3,114.7,30,114.7z"/>
	<path class="st0" d="M106,38.8c-3.7,3.9-6.3,9.3-7.4,15.2c-1.1,6.5-0.3,12.9,2.3,18.1c2.4,4.7,6,7.7,10.2,8.4
		c0.7,0.1,1.4,0.2,2.1,0.2c3.9,0,8-2,11.4-5.5c3.7-3.9,6.3-9.3,7.4-15.3c1.1-6.5,0.3-12.9-2.3-18.1c-2.4-4.7-6-7.7-10.2-8.4
		c-0.7-0.1-1.4-0.2-2.1-0.2h0v-4.7l0,4.7C113.4,33.3,109.4,35.3,106,38.8z"/>
	<path class="st0" d="M170.5,105.1c5.3,0,8-2.4,8-6.5c0-2.5-1-4.4-3.1-5.4l-10.3,11.9H170.5z"/>
	<polygon class="st0" points="63.2,93.1 60.4,99.7 65.6,98.6 	"/>
	<path class="st0" d="M42.5,108.4c2.5,0.5,5,1.1,7.3,1.8l1.7-3.8L42.5,108.4z"/>
	<polygon class="st0" points="107.9,94.2 97.6,96.4 107.9,109.1 	"/>
	<path class="st0" d="M127.8,129.5h-4v7.5h4c3,0,4.5-1.4,4.5-3.7C132.3,130.9,130.8,129.5,127.8,129.5z"/>
	<polygon class="st0" points="193,107.1 190,108.3 193,109.6 	"/>
	<path class="st0" d="M183.7,129.5h-4v7.5h4c3,0,4.5-1.4,4.5-3.7C188.2,130.9,186.7,129.5,183.7,129.5z"/>
	<path class="st0" d="M191.1,98.1c-0.9,0-1.4,0.6-1.4,1.7v1.5h2.8v-1.5C192.5,98.6,192,98.1,191.1,98.1z"/>
	<polygon class="st0" points="193,92.7 193,90.2 190,91.4 	"/>
	<path class="st0" d="M191.1,114.5c-0.9,0-1.4,0.6-1.4,1.7v1.5h2.7v-1.5C192.5,115,192,114.5,191.1,114.5z"/>
	<path class="st2" d="M110.3,85.2c1,0.2,1.9,0.3,2.9,0.3c10.7,0,20.9-10.4,23.4-24.7c2.7-15.6-4.6-29.9-16.4-32
		c-1-0.2-1.9-0.3-2.9-0.3v4.7h0c0.7,0,1.4,0.1,2.1,0.2c4.2,0.7,7.8,3.7,10.2,8.4c2.6,5.1,3.4,11.5,2.3,18.1
		c-1.1,6-3.7,11.4-7.4,15.3c-3.4,3.6-7.4,5.5-11.4,5.5c-0.7,0-1.4-0.1-2.1-0.2c-4.2-0.7-7.8-3.7-10.2-8.4C98.3,67,97.5,60.6,98.6,54
		c1-6,3.7-11.4,7.4-15.2c3.4-3.6,7.4-5.5,11.4-5.5l0-4.7c0,0,0,0,0,0C106.6,28.6,96.5,39,94,53.2C91.2,68.8,98.5,83.1,110.3,85.2z"
		/>
	<polygon class="st2" points="150.9,114.3 153,119 157.4,114 157.4,106.8 	"/>
	<polygon class="st3" points="91,97.6 91,97.9 91.2,97.8 	"/>
	<polygon class="st2" points="65.6,98.6 60.4,99.7 58.1,105 67.5,103 	"/>
	<path class="st2" d="M4.8,111.8c3.2-0.3,6.3-0.5,9.3-0.6c-0.2-0.4-0.4-0.8-0.6-1.2L4.8,111.8z"/>
	<path class="st2" d="M170,92.2l-6.6,7.6v5.3h1.7l10.3-11.9c-1.3-0.7-2.9-1-4.9-1H170z"/>
	<path class="st2" d="M36.7,112.2v-7.3l-17.2,3.7c0.4,0.9,1,1.7,1.7,2.4C26.7,111.1,31.9,111.5,36.7,112.2z"/>
	<path class="st2" d="M84.8,137h2.1c-0.7-1-1.3-2-2.1-3V137z"/>
	<path class="st2" d="M126.4,142.6l-2.6,3v3.8h-3.3l-21.7,25.1c-0.6-8.7-2.7-20.4-8.6-31.8c-0.3,0-0.6,0-0.9,0h-4.5
		c11.9,20.9,9.2,44.5,9.2,44.5l35.9-41.5l-2.1-3.1H126.4z"/>
	<polygon class="st2" points="85,99.2 85,94.3 70.9,97.4 72.9,101.8 	"/>
	<path class="st2" d="M146.7,119.1l-8.2,9.5c0.8,1.3,1.2,2.9,1.2,4.6c0,0.5,0,0.9-0.1,1.3l13-15h-5.6L146.7,119.1z"/>
	<path class="st2" d="M42.5,108.4l9-2l2.4-5.4l-11.6,2.5v9.6c1.9,0.4,3.8,0.9,5.6,1.4l2-4.4C47.5,109.6,45.1,108.9,42.5,108.4z"/>
	<path class="st2" d="M55.3,112h-0.2l-1.8,4.3c5.3,2,10,4.4,14,7.2c2.2,0.3,4.2,1,5.9,2l-0.8,1.9c1.9,1.6,3.6,3.3,5.2,5.1v-6.8
		C71.3,119.8,63.9,115.3,55.3,112z"/>
	<polygon class="st2" points="107.9,94.2 107.9,89.4 94.3,92.3 97.6,96.4 	"/>
	<path class="st2" d="M131.8,89l0.9-1.9h5.9l0.2,0.4l43.6-9.5l-8.1,9.4c1.8,0.3,3.5,0.8,4.9,1.6l16.1-18.6l-81.3,17.7v4.8L131.8,89z
		"/>
	<path class="st4" d="M18.2,103.3c0-6.7,4.9-11.4,11.8-11.4c3.5,0,6.4,1.2,9,3.7l3.8-3.7c-3.1-3.5-7.6-5.3-13-5.3
		c-10.2,0-17.6,7-17.6,16.7c0,2.4,0.5,4.6,1.3,6.6l6-1.3C18.7,107.1,18.2,105.3,18.2,103.3z"/>
	<polygon class="st4" points="42.4,103 36.7,103 36.7,104.9 42.4,103.6 	"/>
	<path class="st4" d="M36.7,113.1c-2.1,1.2-4.4,1.7-6.7,1.7c-3.7,0-6.8-1.4-8.9-3.7c-0.4,0-0.7,0-1.1,0c-1.9,0-3.9,0.1-6,0.1
		c2.8,5.4,8.6,8.8,15.6,8.8c4.6,0,9.3-1.4,12.7-4.1v-2.7c-1.8-0.4-3.7-0.7-5.7-1V113.1z"/>
	<path class="st4" d="M36.7,104.9v7.3c2,0.3,3.9,0.6,5.7,1v-9.6L36.7,104.9z"/>
	<path class="st4" d="M21.1,111.1c-0.7-0.7-1.2-1.5-1.7-2.4l-6,1.3c0.2,0.4,0.4,0.8,0.6,1.2c2-0.1,4-0.1,6-0.1
		C20.4,111,20.7,111.1,21.1,111.1z"/>
	<polygon class="st4" points="63.2,93.1 65.6,98.6 70.9,97.4 66.3,87.1 60.3,87.1 54,101.1 60.4,99.7 	"/>
	<path class="st4" d="M74.6,119.6h6.3l-8-17.7l-5.4,1.2l1.9,4.3H57.2l1-2.3l-6.5,1.4l-1.7,3.8c1.8,0.5,3.6,1.1,5.4,1.8h16.1
		L74.6,119.6z"/>
	<path class="st4" d="M45.7,119.6h6.2l1.4-3.2c-1.7-0.6-3.5-1.2-5.4-1.7L45.7,119.6z"/>
	<polygon class="st4" points="58.1,105 60.4,99.7 54,101.1 51.6,106.5 	"/>
	<polygon class="st2" points="67.5,103 72.9,101.8 70.9,97.4 65.6,98.6 	"/>
	<path class="st4" d="M55.3,112c-1.7-0.7-3.5-1.3-5.4-1.8l-2,4.4c1.9,0.5,3.6,1.1,5.4,1.7l1.8-4.3H55.3z"/>
	<polygon class="st4" points="90,87.1 85,87.1 85,94.3 94.3,92.3 	"/>
	<polygon class="st4" points="91,119.6 91,97.9 85,99.2 85,119.6 	"/>
	<polygon class="st4" points="113.9,119.6 113.9,92.9 107.9,94.2 107.9,109.1 97.6,96.4 91.2,97.8 108.9,119.6 	"/>
	<polygon class="st4" points="113.9,87.1 107.9,87.1 107.9,89.4 113.9,88.1 	"/>
	<polygon class="st4" points="113.9,92.9 113.9,88.1 107.9,89.4 107.9,94.2 	"/>
	<polygon class="st4" points="91,97.9 91,97.6 91.2,97.8 97.6,96.4 94.3,92.3 85,94.3 85,99.2 	"/>
	<polygon class="st3" points="153.3,119.6 153,119 152.6,119.6 	"/>
	<path class="st4" d="M131.8,89L118,119.6h6.2l3.2-7.5h16.2l3,7l4.1-4.8l-12.1-26.8L131.8,89z M129.5,107.3l6.1-14.2l6.1,14.2H129.5
		z"/>
	<polygon class="st4" points="146.7,119.1 146.9,119.6 152.6,119.6 153,119 150.9,114.3 	"/>
	<polygon class="st4" points="138.6,87.1 132.6,87.1 131.8,89 138.8,87.5 	"/>
	<path class="st4" d="M170,92.2l4.2-4.8c-1.1-0.2-2.2-0.3-3.5-0.3h-13.4v19.7l6-7v-7.6H170z"/>
	<path class="st4" d="M185.1,119.6l-7.5-10.7c4.4-1.7,6.9-5.3,6.9-10.3c0-4.4-2-7.7-5.5-9.7l-3.7,4.2c2,1.1,3.1,2.9,3.1,5.4
		c0,4.1-2.7,6.5-8,6.5h-5.4l-7.7,8.9v5.6h6v-9.5h7.3c0.4,0,0.8,0,1.3,0l6.6,9.5H185.1z"/>
	<path class="st2" d="M170,92.2h0.4c2,0,3.7,0.4,4.9,1l3.7-4.2c-1.4-0.8-3-1.3-4.9-1.6L170,92.2z"/>
	<polygon class="st4" points="163.4,105.1 163.4,99.8 157.4,106.8 157.4,114 165.1,105.1 	"/>
	<path class="st4" d="M193.9,116c0-2.1-1.1-3.4-2.9-3.4c-1.8,0-2.9,1.3-2.9,3.4v3.4h7.9v-1.8h-2.2V116z M192.5,117.6h-2.7v-1.5
		c0-1.1,0.5-1.7,1.4-1.7c0.9,0,1.4,0.6,1.4,1.7V117.6z"/>
	<path class="st4" d="M188.2,109.2l7.9,3.5v-1.9l-1.7-0.7v-3.7l1.7-0.7v-1.9l-7.9,3.5V109.2z M193,107.1v2.5l-3-1.3L193,107.1z"/>
	<path class="st4" d="M191.1,96.2c-1.8,0-2.9,1.3-2.9,3.4v3.4h7.9v-1.8h-2.2v-1.6v-0.1l2.2-1.5v-2l-2.5,1.8
		C193.1,96.8,192.3,96.2,191.1,96.2z M192.5,101.2h-2.8v-1.5c0-1.1,0.5-1.7,1.4-1.7c0.9,0,1.4,0.6,1.4,1.7V101.2z"/>
	<path class="st4" d="M196.1,88.9V87l-7.9,3.5v1.8l7.9,3.5v-1.9l-1.7-0.7v-3.7L196.1,88.9z M193,92.7l-3-1.3l3-1.3V92.7z"/>
	<rect x="12" y="123.8" class="st4" width="7.2" height="25.6"/>
	<polygon class="st4" points="41.7,137.4 30.4,123.8 24.4,123.8 24.4,149.4 31.5,149.4 31.5,135.7 42.8,149.4 48.8,149.4 
		48.8,123.8 41.7,123.8 	"/>
	<path class="st4" d="M63.9,123.3c-7.6,0-11.3,3.7-11.3,8.3c0,9.5,14.6,6.5,14.6,10.6c0,1.2-1.2,2.1-4.2,2.1c-3,0-6.2-1-8.5-2.5
		l-2.4,5.3c2.4,1.7,6.6,2.8,10.8,2.8c7.6,0,11.3-3.8,11.3-8.3c0-9.4-14.5-6.5-14.5-10.4c0-1.3,1.1-2.3,4.1-2.3c2.2,0,4.6,0.7,7.1,2
		l1.4-3.4c-1.6-1.4-3.3-2.7-5.1-3.9C66.2,123.4,65,123.3,63.9,123.3z"/>
	<path class="st2" d="M67.3,123.5c1.8,1.2,3.5,2.5,5.1,3.9l0.8-1.9C71.5,124.5,69.5,123.9,67.3,123.5z"/>
	<path class="st4" d="M77.6,149.4h7.2v-6.7h0c-2-3.5-4.4-6.9-7.3-10.1V149.4z"/>
	<path class="st4" d="M100.6,133.2c0-5.9-4.4-9.5-11.4-9.5H77.6v2c1.2,1.2,2.4,2.4,3.5,3.7c1.3,1.5,2.6,3,3.7,4.6v-4.5h4
		c3,0,4.5,1.4,4.5,3.8c0,2.3-1.5,3.7-4.5,3.7h-1.9c1.2,1.9,2.3,3.8,3.3,5.7C96.6,142.4,100.6,138.8,100.6,133.2z"/>
	<path class="st4" d="M90.2,142.7c-1-1.9-2.1-3.8-3.3-5.7h-2.1v-3c-1.1-1.6-2.4-3.1-3.7-4.6c-1.1-1.3-2.3-2.5-3.5-3.7v6.8
		c2.9,3.2,5.3,6.6,7.3,10.1h4.5C89.6,142.7,89.9,142.7,90.2,142.7z"/>
	<rect x="104.2" y="123.8" class="st4" width="7.2" height="25.6"/>
	<path class="st4" d="M128.3,123.8h-11.7v25.6h3.9l3.3-3.8v-3h2.6l12.1-14C136.8,125.5,133.1,123.8,128.3,123.8z M127.8,137h-4v-7.5
		h4c3,0,4.5,1.4,4.5,3.8C132.3,135.6,130.8,137,127.8,137z"/>
	<path class="st4" d="M132.4,149.4h7.8l-5.5-8c2.8-1.4,4.6-3.7,4.9-6.8l-9.7,11.2L132.4,149.4z"/>
	<polygon class="st4" points="123.8,149.4 123.8,145.6 120.5,149.4 	"/>
	<path class="st4" d="M138.5,128.6l-12.1,14h1.4l2.1,3.1l9.7-11.2c0.1-0.4,0.1-0.9,0.1-1.3C139.6,131.5,139.2,129.9,138.5,128.6z"/>
	<path class="st4" d="M151.9,123.8l-11.3,25.6h7.4l2-5h10.8l2,5h7.5L159,123.8H151.9z M152.1,139.1l3.3-8.2l3.3,8.2H152.1z"/>
	<path class="st4" d="M195.5,133.2c0-5.9-4.4-9.5-11.4-9.5h-11.7v25.6h7.2v-6.8h4l4.6,6.8h7.8l-5.5-8
		C193.6,139.8,195.5,137,195.5,133.2z M183.7,137h-4v-7.5h4c3,0,4.5,1.4,4.5,3.8C188.2,135.6,186.7,137,183.7,137z"/>
</g>
</svg>
